Coordinates
version=1
nRows=4
nColumns=63
inDegrees=yes

Units are S.I. units (second, meters, Newtons, ...)
If the header above contains a line with 'inDegrees', this indicates whether rotational values are in degrees (yes) or radians (no).

endheader
time	pelvis_tilt	pelvis_list	pelvis_rotation	pelvis_tx	pelvis_ty	pelvis_tz	hip_flexion_r	hip_adduction_r	hip_rotation_r	knee_angle_r	knee_angle_r_beta	ankle_angle_r	subtalar_angle_r	mtp_angle_r	hip_flexion_l	hip_adduction_l	hip_rotation_l	knee_angle_l	knee_angle_l_beta	ankle_angle_l	subtalar_angle_l	mtp_angle_l	L5_S1_Flex_Ext	L5_S1_Lat_Bending	L5_S1_axial_rotation	L4_L5_Flex_Ext	L4_L5_Lat_Bending	L4_L5_axial_rotation	L3_L4_Flex_Ext	L3_L4_Lat_Bending	L3_L4_axial_rotation	L2_L3_Flex_Ext	L2_L3_Lat_Bending	L2_L3_axial_rotation	L1_L2_Flex_Ext	L1_L2_Lat_Bending	L1_L2_axial_rotation	L1_T12_Flex_Ext	L1_T12_Lat_Bending	L1_T12_axial_rotation	Abs_r3	Abs_r2	Abs_r1	Abs_t1	Abs_t2	neck_flexion	neck_bending	neck_rotation	arm_flex_r	arm_add_r	arm_rot_r	elbow_flex_r	pro_sup_r	wrist_flex_r	wrist_dev_r	arm_flex_l	arm_add_l	arm_rot_l	elbow_flex_l	pro_sup_l	wrist_flex_l	wrist_dev_l
      2.07692308	     -4.43317545	     -2.58325442	     93.41272624	      0.24394342	      0.86826371	      0.67348465	      1.06508339	     -1.36718627	      2.36904629	     14.03556359	      0.24496680	     35.92051609	    -17.36174959	      0.00000000	     -2.25498597	      1.76498298	      6.20716343	      4.78313548	      0.08348146	     37.00445921	     11.27197548	      0.00000000	     -0.36612893	     -0.48200540	     -4.45551964	     -0.67993803	     -0.64106718	     -4.73398962	     -0.60151322	     -1.17194793	     -4.73398962	     -0.41844875	     -1.17194793	     -3.89857969	     -0.33998732	     -0.98290542	     -3.62010971	     -0.20920607	     -0.74662637	     -3.34163973	     -2.61522233	     -5.45254151	    -24.78026360	      0.00000000	      0.00000000	     22.32772569	      8.88699459	     10.95507388	     30.50407380	     19.73888258	    215.62016418	      0.08052795	      1.03997706	    -69.76395235	    -24.23147674	     -4.66990435	    -25.60650312	     21.08721663	     88.66475560	     80.57348965	      4.38830577	     11.04828970
      2.10256410	     -5.43366629	     -1.44948924	     93.05782338	      0.24839819	      0.87177284	      0.67544513	     -0.05753151	     -2.14402255	      2.34317179	     14.11343960	      0.24632599	     35.43059972	    -17.43189249	      0.00000000	     -3.26704886	      2.55603223	      5.69270893	      4.75834456	      0.08304878	     36.71112745	     11.70335025	      0.00000000	     -0.46357037	     -0.63809820	     -4.86508109	     -0.86089654	     -0.84867060	     -5.16914866	     -0.76159976	     -1.55147195	     -5.16914866	     -0.52981458	     -1.55147195	     -4.25694595	     -0.43047145	     -1.30120984	     -3.95287838	     -0.26488411	     -0.98841411	     -3.64881082	     -3.31123680	     -7.21829442	    -27.05812149	      0.00000000	      0.00000000	     20.45620867	      9.22266411	     14.29935992	     31.61238258	     22.51381690	    210.76668140	      0.07391299	      0.79813322	    -69.80178747	    -24.25601858	     -8.38986601	    -26.09368361	     13.97530925	     93.35855123	     79.97517709	      1.74309058	      7.88912971
      2.12820513	     -6.36738852	     -0.07245250	     92.80826517	      0.25237827	      0.87560697	      0.67765810	     -1.43339561	     -2.88351125	      2.27125528	     14.15372903	      0.24702917	     34.86498709	    -17.49757283	      0.00000000	     -4.52504655	      3.29806826	      5.13900732	      4.65719726	      0.08128343	     36.48510176	     12.40192727	      0.00000000	     -0.57313618	     -0.78720739	     -5.37249804	     -1.06437121	     -1.04698583	     -5.70827917	     -0.94160544	     -1.91401604	     -5.70827917	     -0.65503735	     -1.91401604	     -4.70093579	     -0.53221426	     -1.60527331	     -4.36515466	     -0.32749002	     -1.21938424	     -4.02937353	     -4.09385445	     -8.90504742	    -29.88022235	      0.00000000	      0.00000000	     18.34702879	      9.36045592	     18.32038307	     33.32405804	     25.59916761	    207.88990209	      0.06688269	      0.68352340	    -69.83305027	    -24.30971810	    -11.93309929	    -26.45231709	      6.62485350	     98.18007083	     78.76309569	     -0.56747468	      3.82327445
      2.15384615	     -7.08805326	      1.45234862	     92.72942718	      0.25540098	      0.87941724	      0.67990345	     -3.01200057	     -3.44205158	      2.06693217	     14.03301243	      0.24492227	     34.41380131	    -17.55129279	      0.00000000	     -5.89309714	      3.84147432	      4.45981912	      4.65935521	      0.08132109	     36.43711206	     13.37685883	      0.00000000	     -0.68936360	     -0.90782445	     -5.93471510	     -1.28021713	     -1.20740652	     -6.30563479	     -1.13255545	     -2.20728438	     -6.30563479	     -0.78787365	     -2.20728438	     -5.19287571	     -0.64014304	     -1.85123563	     -4.82195602	     -0.39390236	     -1.40622008	     -4.45103632	     -4.92405523	    -10.26949179	    -33.00710496	      0.00000000	      0.00000000	     16.10809066	      9.16659534	     22.68970329	     35.59837152	     28.74771465	    206.89689726	      0.06051056	      0.63622736	    -69.85428409	    -24.37671720	    -14.75709073	    -26.88713520	     -0.19196515	    102.56422424	     78.26863036	     -2.00478355	     -0.48638967
